<?xml version="1.0" encoding="utf-8"?>
<svg version="1.1" id="Layer_1" xmlns="http://www.w3.org/2000/svg" xmlns:xlink="http://www.w3.org/1999/xlink" x="0px" y="0px"
	 width="100px" height="100px" viewBox="0 0 100 100" enable-background="new 0 0 100 100" xml:space="preserve">
<path d="M49.925,100c-3.361,0-6.53-0.762-8.925-2.144l-28.308-16.26c-5.049-2.914-9.153-9.793-9.153-15.336V33.738
	c0-5.536,4.112-12.415,9.166-15.333L41.194,2.14C43.577,0.762,46.734,0,50.074,0c3.362,0,6.532,0.762,8.928,2.145l28.308,16.256
	c5.048,2.915,9.152,9.794,9.152,15.336V66.26c0,5.539-4.112,12.417-9.167,15.333L58.803,97.861C56.423,99.238,53.266,100,49.925,100
	z M50.074,4.78c-2.476,0-4.845,0.548-6.498,1.504L15.085,22.549c-3.6,2.079-6.766,7.31-6.766,11.189V66.26
	c0,3.884,3.158,9.116,6.758,11.194l28.308,16.26c1.66,0.959,4.042,1.507,6.54,1.507c2.478,0,4.846-0.548,6.497-1.503l28.494-16.269
	c3.6-2.077,6.766-7.308,6.766-11.188V33.738c0-3.884-3.158-9.115-6.758-11.194L56.616,6.287C54.955,5.328,52.572,4.78,50.074,4.78z
	 M49.999,72.21l-21.631-8.801V44.212l-15.175-5.975L38.83,27.793l11.153,4.389L50,32.175l0.014,0.006l11.153-4.387l25.638,10.444
	l-15.172,5.976v19.197L49.999,72.21z M33.148,60.194l16.851,6.856l16.854-6.856V46.129L50,52.993l-16.853-6.866V60.194z
	 M37.118,42.584L50,47.833l12.884-5.248L50,37.336L37.118,42.584z M56.427,34.793l12.818,5.223l4.707-1.854l-12.817-5.221
	L56.427,34.793z M26.046,38.161l4.708,1.854l12.816-5.221l-4.709-1.853L26.046,38.161z"/>
</svg>
