<?xml version="1.0" encoding="utf-8"?>
<svg version="1.1" xmlns="http://www.w3.org/2000/svg" viewBox="0 0 71 77" overflow="visible">
<path d="M64.4,14.6L41.7,1.5C40,0.5,37.8,0,35.5,0c-2.2,0-4.5,0.5-6.2,1.5L6.7,14.6c-3.4,2-6.2,6.8-6.2,10.7v26.2
	c0,3.9,2.8,8.7,6.2,10.7l22.7,13.1c1.7,1,3.9,1.5,6.2,1.5c2.2,0,4.5-0.5,6.2-1.5l22.7-13.1c3.4-2,6.2-6.8,6.2-10.7V25.2
	C70.5,21.3,67.8,16.5,64.4,14.6z M55.4,29.4L31.2,53.6c-1,1-2.6,1-3.6,0L17,43c-1-1-0.8-2.8,0-3.6l2.8-2.8c1-1,2.6-1,3.6,0l4.3,4.3
	c1,1,2.6,1,3.6,0l17.8-17.8c1-1,2.6-1,3.6,0l2.8,2.8C56.4,26.8,56.4,28.4,55.4,29.4z"/>
</svg>
