<?xml version="1.0" encoding="utf-8"?>
<svg version="1.1" xmlns="http://www.w3.org/2000/svg" viewBox="0 0 71 77" overflow="visible">
<path d="M64.4,14.6L41.7,1.5C40,0.5,37.8,0,35.5,0c-2.2,0-4.5,0.5-6.2,1.5L6.7,14.6c-3.4,2-6.2,6.8-6.2,10.7v26.2
	c0,3.9,2.8,8.7,6.2,10.7l22.7,13.1c1.7,1,3.9,1.5,6.2,1.5c2.2,0,4.5-0.5,6.2-1.5l22.7-13.1c3.4-2,6.2-6.8,6.2-10.7V25.2
	C70.5,21.3,67.8,16.5,64.4,14.6z M20,47.7c-5.1,0-9.3-4.2-9.3-9.3c0-5.1,4.2-9.3,9.3-9.3c5.1,0,9.3,4.2,9.3,9.3
	C29.3,43.5,25.1,47.7,20,47.7z M30.9,45l3.6-6.7l-3.6-6.7l9.2,6.7L30.9,45z M51.1,47.7c-5.1,0-9.3-4.2-9.3-9.3
	c0-5.1,4.2-9.3,9.3-9.3c5.1,0,9.3,4.2,9.3,9.3C60.4,43.5,56.2,47.7,51.1,47.7z"/>
</svg>
