<?xml version="1.0" encoding="utf-8"?>
<svg version="1.1" id="Layer_1" xmlns="http://www.w3.org/2000/svg" xmlns:xlink="http://www.w3.org/1999/xlink" x="0px" y="0px"
	 width="750px" height="500px" viewBox="270.5 300.5 750 500" enable-background="new 270.5 300.5 750 500" xml:space="preserve">
<g transform="translate(-528.67833,-378.69073)">
	<path fill="#848484" d="M1069.78,838.153v103.371h41.906V838.153c0-34.592,28.145-62.733,62.732-62.733
		c34.587,0,62.73,28.141,62.73,62.733v103.371h41.906V838.153c0-57.696-46.941-104.637-104.636-104.637
		C1116.725,733.516,1069.78,780.457,1069.78,838.153"/>
	<g>
		<path fill="#848484" d="M1174.178,878.09c-68.031,0-123.388,55.35-123.388,123.388c0,68.028,55.357,123.388,123.388,123.388
			c68.032,0,123.388-55.36,123.388-123.388C1297.566,933.44,1242.211,878.09,1174.178,878.09z M1218.42,1057.743
			c-0.282,0.359-0.582,0.698-0.894,1.022c-0.164,0.265-0.332,0.53-0.532,0.754c-0.108,0.121-0.346,0.24-0.681,0.356
			c-1.693,1.381-3.579,2.232-5.173,2.232c-0.049,0-0.099,0-0.146-0.002c-0.109-0.003-0.302-0.005-0.577-0.005
			c-1.644,0-6.011,0.052-11.54,0.118c-10.919,0.129-27.418,0.324-39.869,0.324c-16.482,0-17.544-0.339-18.18-0.542
			c-4.312-1.379-7.248-3.774-8.722-7.117c-2.338-5.294-0.144-11.203,0.906-13.496c1.911-4.168,26.926-65.306,29.213-70.896v-21.947
			c-2.769-2.576-2.634-3.861-2.574-4.435c0.271-2.619,3.802-3.051,5.7-3.284c2.777-0.339,6.244-0.41,8.664-0.41
			c3.905,0,7.992,0.178,11.218,0.492c1.703,0.166,3.079,0.361,4.091,0.58c0.933,0.203,2.871,0.622,3.277,2.342
			c0.332,1.416-0.591,2.703-1.636,3.881c-0.245,0.274-0.49,0.534-0.706,0.755l0.174,21.37l7.887,20.487
			c1.069,2.477,20.623,47.814,22.576,55.808C1221.91,1050.293,1221.032,1054.416,1218.42,1057.743z"/>
		<path fill="#848484" d="M1188.212,970.257l-0.183-22.71c0,0,2.592-2.423,2.408-3.208c-0.232-0.985-8.748-1.705-16.423-1.705
			c-6.299,0-12.032,0.485-12.158,1.705c-0.097,0.924,2.586,3.208,2.586,3.208v23.38c0,0-6.334,15.49-13.138,32.062h50.014
			c-2.938-6.917-5.059-11.827-5.059-11.827L1188.212,970.257z M1179.592,949.835c2.912,0,5.272,2.36,5.272,5.272
			s-2.36,5.272-5.272,5.272s-5.272-2.36-5.272-5.272S1176.68,949.835,1179.592,949.835z M1169.671,1000.277
			c-2.303,0-4.17-1.867-4.17-4.17c0-2.303,1.867-4.17,4.17-4.17s4.17,1.867,4.17,4.17S1171.974,1000.277,1169.671,1000.277z
			 M1172.146,980.899c-3.295,0-5.966-2.671-5.966-5.966s2.671-5.966,5.966-5.966s5.966,2.671,5.966,5.966
			S1175.44,980.899,1172.146,980.899z M1183.292,998.225c-3.474,0-6.289-2.816-6.289-6.289c0-3.473,2.816-6.289,6.289-6.289
			c3.474,0,6.289,2.816,6.289,6.289C1189.581,995.409,1186.765,998.225,1183.292,998.225z"/>
	</g>
</g>
</svg>
