<?xml version="1.0" encoding="utf-8"?>
<svg version="1.1" id="Layer_1" xmlns="http://www.w3.org/2000/svg" xmlns:xlink="http://www.w3.org/1999/xlink" x="0px" y="0px"
	 width="800px" height="600px" viewBox="325.5 300.5 800 600" enable-background="new 325.5 300.5 800 600" xml:space="preserve">
<g transform="translate(-528.67833,-378.69073)">
	<path fill="#848484" d="M1120.797,862.878v132.07h53.54v-132.07c0-44.196,35.959-80.149,80.148-80.149
		c44.189,0,80.146,35.954,80.146,80.15v132.07h53.54v-132.07c0-73.714-59.973-133.687-133.686-133.687
		C1180.775,729.191,1120.797,789.164,1120.797,862.878"/>
	<g>
		<path fill="#848484" d="M1254.178,913.903c-86.918,0-157.644,70.717-157.644,157.644c0,86.914,70.726,157.644,157.644,157.644
			c86.92,0,157.644-70.73,157.644-157.644C1411.823,984.619,1341.099,913.903,1254.178,913.903z M1310.703,1143.432
			c-0.36,0.459-0.744,0.892-1.142,1.306c-0.209,0.339-0.424,0.677-0.68,0.963c-0.138,0.155-0.442,0.307-0.87,0.455
			c-2.163,1.764-4.573,2.852-6.609,2.852c-0.063,0-0.126,0-0.187-0.003c-0.139-0.004-0.386-0.006-0.737-0.006
			c-2.1,0-7.68,0.066-14.744,0.151c-13.95,0.165-35.03,0.414-50.938,0.414c-21.058,0-22.415-0.433-23.227-0.692
			c-5.509-1.762-9.26-4.822-11.144-9.093c-2.987-6.764-0.184-14.313,1.157-17.243c2.442-5.325,34.401-83.437,37.323-90.579v-28.04
			c-3.538-3.291-3.365-4.933-3.289-5.666c0.346-3.346,4.858-3.898,7.282-4.196c3.548-0.433,7.978-0.524,11.069-0.524
			c4.989,0,10.211,0.227,14.332,0.629c2.176,0.212,3.934,0.461,5.227,0.741c1.192,0.259,3.668,0.795,4.187,2.992
			c0.424,1.809-0.755,3.453-2.09,4.958c-0.313,0.35-0.626,0.682-0.902,0.965l0.222,27.303l10.077,26.175
			c1.366,3.165,26.349,61.089,28.844,71.302C1315.162,1133.914,1314.04,1139.182,1310.703,1143.432z"/>
		<path fill="#848484" d="M1272.109,1031.658l-0.234-29.015c0,0,3.312-3.096,3.076-4.099c-0.296-1.258-11.177-2.178-20.982-2.178
			c-8.048,0-15.372,0.62-15.533,2.178c-0.124,1.181,3.304,4.099,3.304,4.099v29.871c0,0-8.092,19.79-16.785,40.963h63.899
			c-3.754-8.837-6.464-15.11-6.464-15.11L1272.109,1031.658z M1261.095,1005.566c3.72,0,6.736,3.015,6.736,6.736
			c0,3.72-3.015,6.736-6.736,6.736c-3.72,0-6.736-3.015-6.736-6.736C1254.36,1008.581,1257.375,1005.566,1261.095,1005.566z
			 M1248.42,1070.012c-2.942,0-5.328-2.385-5.328-5.328s2.385-5.328,5.328-5.328s5.328,2.385,5.328,5.328
			S1251.362,1070.012,1248.42,1070.012z M1251.582,1045.254c-4.21,0-7.622-3.413-7.622-7.622c0-4.21,3.413-7.622,7.622-7.622
			c4.21,0,7.622,3.413,7.622,7.622C1259.204,1041.842,1255.791,1045.254,1251.582,1045.254z M1265.823,1067.391
			c-4.438,0-8.035-3.598-8.035-8.035c0-4.437,3.598-8.035,8.035-8.035c4.438,0,8.035,3.598,8.035,8.035
			C1273.858,1063.793,1270.26,1067.391,1265.823,1067.391z"/>
	</g>
</g>
</svg>
