<?xml version="1.0" encoding="utf-8"?>
<svg version="1.1" id="Layer_1" xmlns="http://www.w3.org/2000/svg" xmlns:xlink="http://www.w3.org/1999/xlink" x="0px" y="0px"
	 width="100px" height="100px" viewBox="0 0 100 100" enable-background="new 0 0 100 100" xml:space="preserve">
<path d="M49.925,100.001c-3.361,0-6.531-0.762-8.926-2.144l-28.307-16.26c-5.049-2.915-9.154-9.793-9.154-15.336V33.738
	c0-5.536,4.113-12.414,9.168-15.333L41.194,2.14c2.383-1.377,5.54-2.14,8.881-2.14c3.362,0,6.532,0.762,8.926,2.146l28.308,16.256
	c5.048,2.915,9.152,9.794,9.152,15.336v32.523c0,5.539-4.112,12.417-9.167,15.333L58.805,97.862
	C56.422,99.239,53.264,100.001,49.925,100.001z M50.075,4.78c-2.477,0-4.846,0.548-6.5,1.504L15.086,22.55
	c-3.601,2.079-6.768,7.31-6.768,11.189v32.523c0,3.884,3.159,9.115,6.759,11.194l28.307,16.26c1.66,0.959,4.043,1.507,6.541,1.507
	c2.477,0,4.846-0.548,6.499-1.504l28.491-16.268c3.6-2.077,6.766-7.308,6.766-11.188V33.738c0-3.884-3.158-9.115-6.758-11.194
	L56.615,6.288C54.955,5.329,52.573,4.78,50.075,4.78z M71.632,74.115H28.368V53.196h13.656V25.885h15.952v8.69h13.656V74.115z
	 M60.459,69.336h6.394V39.355h-6.394V69.336z M46.803,69.336h6.393V30.665h-6.393V69.336z M33.147,69.336h6.394v-11.36h-6.394
	V69.336z"/>
</svg>
