<?xml version="1.0" encoding="utf-8"?>
<svg version="1.1" xmlns="http://www.w3.org/2000/svg" xmlns:xlink="http://www.w3.org/1999/xlink" viewBox="0 0 71 77" overflow="visible">
<path d="M35.5,26.221l15.481,6.307L35.5,38.833l-15.479-6.306L35.5,26.221z M64.594,14.717L41.788,1.62
	c-1.697-0.98-3.993-1.47-6.229-1.47c-2.236,0-4.501,0.489-6.198,1.47L6.421,14.717C3.028,16.676,0,21.483,0,25.401v26.197
	c0,3.918,3.013,8.725,6.406,10.684l22.806,13.1c1.696,0.979,3.992,1.469,6.227,1.469c2.236,0,4.502-0.489,6.198-1.469l22.942-13.1
	C67.972,60.324,71,55.516,71,51.598V25.401C71,21.483,67.987,16.676,64.594,14.717z M51,32.528v15.479l-15.501,6.306L20,48.007
	V32.528l-8.972-3.533l15.487-6.309l8.982,3.535l8.985-3.535l15.488,6.309L51,32.528z" fill="none" stroke="black" stroke-width="5"/>
</svg>
