<?xml version="1.0" encoding="utf-8"?>
<svg version="1.1" xmlns="http://www.w3.org/2000/svg" viewBox="0 0 71 77" overflow="visible">
<path d="M35.6,76.9c-2.6,0-5-0.6-6.9-1.7L7.2,62.8c-3.9-2.3-6.9-7.5-6.9-11.9V26.1c0-4.4,3-9.6,6.9-11.9L28.6,1.8
	c1.8-1.1,4.3-1.7,6.9-1.7c2.6,0,5,0.6,6.9,1.7l21.5,12.4c3.7,2.1,6.7,7.2,7,11.7l0,0.1v24.9c0,4.4-3,9.6-6.9,11.9L42.5,75.2
	C40.7,76.3,38.1,76.9,35.6,76.9z M35.5,4.1c-1.8,0-3.6,0.4-4.9,1.1L9.2,17.7c-2.6,1.5-4.9,5.5-4.9,8.4v24.8c0,3,2.3,6.9,4.9,8.4
	l21.5,12.4c1.3,0.7,3,1.2,4.9,1.2c1.8,0,3.6-0.4,4.9-1.1L62,59.3c2.6-1.5,4.9-5.5,4.9-8.4V26c-0.2-3.1-2.4-6.9-4.9-8.3l0,0L40.4,5.3
	C39.1,4.5,37.4,4.1,35.5,4.1z M29.7,55.6c-1.1,0-2.3-0.4-3.1-1.3l-10-10c-1.8-1.8-1.5-4.8,0-6.2l2.7-2.7c1.7-1.7,4.5-1.7,6.2,0
	l4.1,4.1c0.2,0.2,0.4,0.2,0.6,0L47,22.6c1.7-1.7,4.5-1.7,6.2,0l2.7,2.7c1.7,1.7,1.6,4.4-0.1,6.1L32.8,54.3
	C32,55.2,30.9,55.6,29.7,55.6z M22.3,38.1c-0.1,0-0.2,0-0.3,0.1l-2.7,2.7c-0.1,0.1-0.1,0.5,0,0.6l10,10c0.2,0.2,0.4,0.2,0.6,0
	l22.9-22.9c0.2-0.2,0.1-0.4,0.1-0.5l-2.7-2.7c-0.2-0.2-0.4-0.2-0.6,0L32.9,42.3c-1.7,1.7-4.5,1.7-6.2,0l-4.1-4.1
	C22.5,38.1,22.4,38.1,22.3,38.1z"/>
</svg>
