<?xml version="1.0" encoding="utf-8"?>
<svg version="1.1" xmlns="http://www.w3.org/2000/svg" viewBox="0 0 71 77" overflow="visible">
  <path
     style="fill:none;stroke:#000000;stroke-width:3.80100608;stroke-miterlimit:4;stroke-dasharray:none"
     d="M 62.85189,15.899368 41.28118,3.4510732 C 39.665753,2.5008216 37.575199,2.0256959 35.389621,2.0256959 c -2.090553,0 -4.276132,0.4751257 -5.89156,1.4253773 L 8.0223767,15.899368 c -3.2308551,1.900503 -5.8915594,6.46171 -5.8915594,10.167691 v 24.89659 c 0,3.705981 2.6607043,8.267188 5.8915594,10.167691 L 29.593087,73.579635 c 1.615427,0.950252 3.705981,1.425377 5.891559,1.425377 2.090553,0 4.276132,-0.475125 5.891559,-1.425377 L 62.946915,61.13134 c 3.230855,-1.900503 5.891559,-6.46171 5.891559,-10.167691 V 25.972034 C 68.648424,22.266053 66.082745,17.704846 62.85189,15.899368 Z"/>
  <path
     style="fill:none;stroke:#000000;stroke-width:3.12725544;stroke-miterlimit:4;stroke-dasharray:none"
     d="m 19.910918,45.670869 c -3.98725,0 -7.270868,-3.283617 -7.270868,-7.270868 0,-3.987251 3.283618,-7.270869 7.270868,-7.270869 3.987251,0 7.270869,3.283618 7.270869,7.270869 0,3.987251 -3.283618,7.270868 -7.270869,7.270868 z"/>
  <path
     style="fill:none;stroke:#000000;stroke-width:2.25857186;stroke-miterlimit:4;stroke-dasharray:none"
     d="m 32.242449,42.203437 2.032715,-3.783108 -2.032715,-3.783108 5.194716,3.783108 z"/>
  <path
     style="fill:none;stroke:#000000;stroke-width:3.12725544;stroke-miterlimit:4;stroke-dasharray:none"
     d="m 50.800524,45.670869 c -3.987251,0 -7.27087,-3.283617 -7.27087,-7.270868 0,-3.987251 3.283619,-7.270869 7.27087,-7.270869 3.98725,0 7.270868,3.283618 7.270868,7.270869 0,3.987251 -3.283618,7.270868 -7.270868,7.270868 z"/>
</svg>
